<?xml version="1.0" encoding="UTF-8" standalone="no"?>
<!-- Created with Inkscape (http://www.inkscape.org/) -->

<svg
   xmlns:dc="http://purl.org/dc/elements/1.1/"
   xmlns:cc="http://creativecommons.org/ns#"
   xmlns:rdf="http://www.w3.org/1999/02/22-rdf-syntax-ns#"
   xmlns:svg="http://www.w3.org/2000/svg"
   xmlns="http://www.w3.org/2000/svg"
   xmlns:sodipodi="http://sodipodi.sourceforge.net/DTD/sodipodi-0.dtd"
   xmlns:inkscape="http://www.inkscape.org/namespaces/inkscape"
   width="420.995"
   height="372"
   viewBox="0 0 111.38826 98.425003"
   version="1.1"
   id="svg8"
   inkscape:version="0.92.5 (2060ec1f9f, 2020-04-08)"
   sodipodi:docname="ansible-suitcase.svg"
   inkscape:export-filename="/home/nborboen/Dev/fsd/ansible.suitcase/img/ansible-suitcase.png"
   inkscape:export-xdpi="96"
   inkscape:export-ydpi="96">
  <title
     id="title1172">Ansible Suitcase</title>
  <defs
     id="defs2" />
  <sodipodi:namedview
     id="base"
     pagecolor="#ffffff"
     bordercolor="#666666"
     borderopacity="1.0"
     inkscape:pageopacity="0.0"
     inkscape:pageshadow="2"
     inkscape:zoom="0.98994949"
     inkscape:cx="325.99262"
     inkscape:cy="-111.43984"
     inkscape:document-units="px"
     inkscape:current-layer="layer1"
     showgrid="false"
     units="px"
     fit-margin-top="5"
     fit-margin-left="5"
     fit-margin-right="5"
     fit-margin-bottom="5"
     inkscape:window-width="2516"
     inkscape:window-height="1376"
     inkscape:window-x="44"
     inkscape:window-y="27"
     inkscape:window-maximized="1" />
  <metadata
     id="metadata5">
    <rdf:RDF>
      <cc:Work
         rdf:about="">
        <dc:format>image/svg+xml</dc:format>
        <dc:type
           rdf:resource="http://purl.org/dc/dcmitype/StillImage" />
        <dc:title>Ansible Suitcase</dc:title>
        <cc:license
           rdf:resource="http://creativecommons.org/publicdomain/zero/1.0/" />
        <dc:source>https://github.com/epfl-si/ansible.suitcase</dc:source>
      </cc:Work>
      <cc:License
         rdf:about="http://creativecommons.org/publicdomain/zero/1.0/">
        <cc:permits
           rdf:resource="http://creativecommons.org/ns#Reproduction" />
        <cc:permits
           rdf:resource="http://creativecommons.org/ns#Distribution" />
        <cc:permits
           rdf:resource="http://creativecommons.org/ns#DerivativeWorks" />
      </cc:License>
    </rdf:RDF>
  </metadata>
  <g
     inkscape:label="Layer 1"
     inkscape:groupmode="layer"
     id="layer1"
     transform="translate(188.74175,182.34941)">
    <g
       id="g1170">
      <g
         transform="matrix(0.16579522,0,0,0.16579522,-154.28124,-151.79485)"
         id="g931">
        <g
           style="fill:#1a1918"
           transform="translate(0,281.86)"
           id="g907">
          <path
             inkscape:connector-curvature="0"
             d="m 67.5168,32.0035 c -0.54152,0 -1.12617,-0.13685 -1.53212,-0.68583 L 48.60118,8.45647 v 23.3187 H 44.63687 V 3.06097 c 0,-1.14253 0.94592,-2.0571 2.0278,-2.0571 0.62971,0 1.17084,0.1826 1.57485,0.73158 l 17.3396,22.8159 V 1.32375 h 3.96392 v 28.6681 c 0,1.18907 -0.94592,2.01175 -2.02625,2.01175"
             id="path893" />
          <path
             inkscape:connector-curvature="0"
             d="m 100.306,32.278 c -3.96276,0 -8.10693,-0.82347 -11.9803,-2.28584 l 0.94631,-3.2927 c 3.55797,1.14332 7.43099,1.96639 11.034,1.96639 4.99958,0 7.61163,-1.7834 7.61163,-4.29759 0,-2.28663 -2.02741,-3.42956 -9.00817,-6.72187 -6.98076,-3.29192 -9.72722,-5.39477 -9.72722,-9.51055 0,-5.16563 3.96276,-7.27006 11.4384,-7.27006 3.10813,0 7.88162,0.64087 10.63,1.46395 l -0.63087,3.38302 c -3.01839,-0.73119 -6.80051,-1.23402 -9.90864,-1.23402 -5.26839,0 -7.4306,1.00528 -7.4306,3.52066 0,2.46844 1.57562,3.52026 8.96194,6.94982 7.79188,3.61216 9.77345,5.4413 9.77345,9.18992 0,5.4417 -5.13515,8.13888 -11.71,8.13888"
             id="path895" />
          <path
             inkscape:connector-curvature="0"
             d="m 130.798,1.32367 h 4.09833 v 30.4511 H 130.798 Z"
             id="path897" />
          <path
             inkscape:connector-curvature="0"
             d="m 169.758,17.9669 h -10.1798 v 10.334 h 10.1798 c 3.46746,0 5.58422,-2.19514 5.58422,-5.2591 0,-2.88057 -2.2065,-5.07492 -5.58422,-5.07492 m -1.98274,-13.1685 h -8.19705 v 9.73929 h 8.19705 c 3.28838,0 5.67512,-2.10364 5.67512,-5.02957 0,-2.88057 -2.07208,-4.70972 -5.67512,-4.70972 m 2.02741,26.9766 h -12.2499 c -1.17162,0 -2.07247,-0.91497 -2.07247,-2.0575 V 3.38138 c 0,-1.09796 0.90086,-2.0575 2.07247,-2.0575 h 10.1332 c 6.21509,0 9.90786,3.06317 9.90786,7.86439 0,2.60569 -1.53134,5.02917 -3.8738,6.44659 3.4694,1.05182 5.80992,3.932 5.80992,7.40691 0,4.84657 -4.00743,8.73322 -9.72722,8.73322"
             id="path899" />
          <path
             inkscape:connector-curvature="0"
             d="m 199.212,31.7751 c -1.12422,0 -2.02547,-0.96032 -2.02547,-2.0575 V 1.324 h 4.09755 v 26.7479 h 16.304 v 3.70326 h -18.3761 z"
             id="path901" />
          <path
             inkscape:connector-curvature="0"
             d="m 245.526,32.278 c -8.3773,0 -13.4215,-3.10892 -13.4215,-9.37291 0,-2.97207 1.66691,-5.8069 4.90984,-7.13281 -2.61244,-1.64616 -3.96314,-3.97814 -3.96314,-6.53848 0,-5.66926 4.36987,-8.36802 12.5658,-8.36802 2.74763,0 6.62026,0.32063 9.86358,1.05261 l -0.45101,3.38302 c -3.42201,-0.54898 -6.62104,-0.86804 -9.72839,-0.86804 -5.31462,0 -8.15238,1.46237 -8.15238,4.98343 0,2.78947 2.61283,4.98382 6.08146,4.98382 h 7.02504 c 0.99098,0 1.75626,0.77733 1.75626,1.73726 0,1.00568 -0.76528,1.78301 -1.75626,1.78301 h -7.56501 c -3.9647,0 -6.48546,1.96561 -6.48546,4.98421 0,4.43484 4.09833,5.76075 9.23232,5.76075 2.79269,0 6.57442,-0.3648 9.63671,-1.09678 l 0.58697,3.33727 c -2.92827,0.82347 -6.757,1.37166 -10.1347,1.37166"
             id="path903" />
          <path
             inkscape:connector-curvature="0"
             d="M 14.138,7.0347 21.31571,25.019 10.47511,16.34967 14.13797,7.03474 Z M 26.8894,29.1624 15.8495,2.1878 C 15.53445,1.41047 14.90358,0.99873 14.13791,0.99873 c -0.76567,0 -1.44121,0.41174 -1.75626,1.18907 L 0.26375,31.7752 h 4.14456 l 4.79757,-12.1983 14.3142,11.7408 c 0.57571,0.47208 0.99098,0.68583 1.53212,0.68583 1.08033,0 2.02625,-0.82268 2.02625,-2.01135 0,-0.19285 -0.06798,-0.49968 -0.18918,-0.82978 z"
             id="path905" />
        </g>
        <path
           style="fill:#1a1918"
           inkscape:connector-curvature="0"
           d="m 255.879,127.868 c 0,70.4551 -57.1101,127.565 -127.566,127.565 C 57.8629,255.433 0.747,198.3234 0.747,127.868 0.747,57.4179 57.8631,0.302 128.313,0.302 c 70.4561,0 127.566,57.1161 127.566,127.566"
           id="path909" />
        <path
           style="fill:#ffffff"
           inkscape:connector-curvature="0"
           d="M 130.46,78.2289 163.4716,159.7052 113.6081,120.4274 130.46,78.229 Z m 58.6445,100.245 -50.7786,-122.202 c -1.44952,-3.52436 -4.34807,-5.38926 -7.86591,-5.38926 -3.52436,0 -6.63386,1.86489 -8.08339,5.38926 l -55.7329,134.04 H 85.709 l 22.0623,-55.2653 65.8389,53.1899 c 2.64792,2.14114 4.55852,3.1095 7.0422,3.1095 4.97389,0 9.32146,-3.72878 9.32146,-9.11101 0,-0.87594 -0.30939,-2.2662 -0.86941,-3.76143 z"
           id="path911" />
      </g>
      <g
         transform="matrix(0.26458333,0,0,0.26458333,-187.41883,-187.50799)"
         id="g1129">
        <g
           id="g1063">
	<path
   inkscape:connector-curvature="0"
   d="M 390.375,85.14 H 377.99 V 79.2 c 0,-5.388 -4.384,-9.771 -9.772,-9.771 h -38.771 c -5.388,0 -9.772,4.383 -9.772,9.771 v 5.94 H 274.483 V 61.732 c 0,-20.531 -16.704,-37.235 -37.235,-37.235 h -63.506 c -20.531,0 -37.234,16.704 -37.234,37.235 V 85.14 H 91.32 V 79.2 c 0,-5.388 -4.384,-9.771 -9.772,-9.771 H 42.777 c -5.388,0 -9.771,4.383 -9.771,9.771 v 5.94 H 20.62 C 9.25,85.14 0,94.39 0,105.76 v 247.363 c 0,11.37 9.25,20.62 20.62,20.62 h 7.554 v 7.754 c 0,2.761 2.239,5 5,5 h 38.652 c 2.761,0 5,-2.239 5,-5 v -7.754 h 257.343 v 7.754 c 0,2.761 2.239,5 5,5 h 38.652 c 2.761,0 5,-2.239 5,-5 v -7.754 h 7.554 c 11.37,0 20.62,-9.25 20.62,-20.62 V 105.76 c 0,-11.37 -9.25,-20.62 -20.62,-20.62 z m 10.62,20.62 v 23.469 c -17.741,-2.258 -31.83,-16.348 -34.087,-34.089 h 23.468 c 5.854,0 10.619,4.764 10.619,10.62 z M 54.169,363.743 C 51.82,340.477 33.267,321.924 10,319.576 v -180.27 c 23.266,-2.347 41.82,-20.9 44.169,-44.166 h 118.413 v 31.898 c 0,2.761 2.239,5 5,5 h 55.831 c 2.761,0 5,-2.239 5,-5 V 95.14 h 118.419 c 2.348,23.264 20.899,41.816 44.163,44.166 v 180.271 c -23.264,2.349 -41.815,20.901 -44.163,44.166 z M 182.582,95.14 h 45.831 v 26.898 H 182.582 Z M 329.674,79.428 h 38.315 v 5.711 H 329.674 Z M 146.507,61.732 c 0,-15.018 12.217,-27.235 27.234,-27.235 h 63.506 c 15.018,0 27.235,12.217 27.235,27.235 V 85.136 H 254.86 V 63.454 c 0,-10.661 -8.674,-19.335 -19.335,-19.335 h -60.063 c -10.661,0 -19.334,8.674 -19.334,19.335 v 21.682 h -9.622 V 61.732 Z m 19.621,1.722 c 0,-5.147 4.188,-9.335 9.334,-9.335 h 60.063 c 5.147,0 9.335,4.188 9.335,9.335 V 85.14 H 166.128 Z M 43.005,79.428 H 81.32 v 5.711 H 43.005 Z M 20.62,95.14 H 44.093 C 41.835,112.884 27.744,126.974 10,129.23 V 105.76 C 10,99.904 14.764,95.14 20.62,95.14 Z M 10,353.123 v -23.471 c 17.744,2.256 31.835,16.347 34.093,34.091 H 20.62 c -5.856,0 -10.62,-4.764 -10.62,-10.62 z m 56.826,23.374 H 38.174 v -2.754 h 28.652 z m 305.995,0 h -28.652 v -2.754 h 28.652 z m 17.554,-12.754 h -23.468 c 2.257,-17.742 16.346,-31.832 34.087,-34.09 v 23.47 c 10e-4,5.856 -4.764,10.62 -10.619,10.62 z"
   id="path1041" />

	<path
   inkscape:connector-curvature="0"
   d="M 176.114,348.582 H 61.231 c -2.761,0 -5,2.239 -5,5 0,2.761 2.239,5 5,5 h 114.883 c 2.761,0 5,-2.239 5,-5 0,-2.761 -2.239,-5 -5,-5 z"
   id="path1043" />

	<path
   inkscape:connector-curvature="0"
   d="m 356.68,105.565 c 0,-2.761 -2.239,-5 -5,-5 h -92.335 c -2.761,0 -5,2.239 -5,5 0,2.761 2.239,5 5,5 h 92.335 c 2.761,0 5,-2.239 5,-5 z"
   id="path1045" />

	<path
   inkscape:connector-curvature="0"
   d="m 358.637,114.522 h -55.831 c -2.761,0 -5,2.239 -5,5 0,2.761 2.239,5 5,5 h 55.831 c 2.761,0 5,-2.239 5,-5 0,-2.761 -2.239,-5 -5,-5 z"
   id="path1047" />

	<path
   inkscape:connector-curvature="0"
   d="m 56.568,148.511 c 0,-2.761 -2.239,-5 -5,-5 H 18.284 c -2.761,0 -5,2.239 -5,5 0,2.761 2.239,5 5,5 h 33.284 c 2.761,0 5,-2.238 5,-5 z"
   id="path1049" />

	<path
   inkscape:connector-curvature="0"
   d="M 29.021,157.469 H 18.284 c -2.761,0 -5,2.239 -5,5 0,2.761 2.239,5 5,5 h 10.737 c 2.761,0 5,-2.239 5,-5 0,-2.761 -2.239,-5 -5,-5 z"
   id="path1051" />

	<path
   inkscape:connector-curvature="0"
   d="m 117.767,337.477 c 0,-2.761 -2.239,-5 -5,-5 H 52.642 c -2.761,0 -5,2.239 -5,5 0,2.761 2.239,5 5,5 h 60.125 c 2.761,0 5,-2.239 5,-5 z"
   id="path1053" />

	<path
   inkscape:connector-curvature="0"
   d="m 387.481,345.226 c -1.31,0 -2.6,0.54 -3.53,1.47 -0.93,0.93 -1.47,2.22 -1.47,3.53 0,1.32 0.54,2.61 1.47,3.54 0.93,0.93 2.22,1.46 3.53,1.46 1.32,0 2.61,-0.53 3.54,-1.46 0.93,-0.93 1.46,-2.22 1.46,-3.54 0,-1.31 -0.53,-2.6 -1.46,-3.53 -0.93,-0.93 -2.22,-1.47 -3.54,-1.47 z"
   id="path1055" />

	<path
   inkscape:connector-curvature="0"
   d="m 23.511,345.226 c -1.32,0 -2.61,0.54 -3.54,1.47 -0.93,0.93 -1.46,2.22 -1.46,3.53 0,1.32 0.53,2.61 1.46,3.54 0.93,0.93 2.22,1.46 3.54,1.46 1.32,0 2.6,-0.53 3.53,-1.46 0.94,-0.93 1.47,-2.22 1.47,-3.54 0,-1.31 -0.53,-2.6 -1.47,-3.53 -0.93,-0.93 -2.21,-1.47 -3.53,-1.47 z"
   id="path1057" />

	<path
   inkscape:connector-curvature="0"
   d="m 387.481,113.656 c 1.32,0 2.61,-0.54 3.54,-1.47 0.93,-0.93 1.46,-2.22 1.46,-3.53 0,-1.32 -0.53,-2.61 -1.46,-3.54 -0.93,-0.93 -2.22,-1.46 -3.54,-1.46 -1.31,0 -2.6,0.53 -3.53,1.46 -0.93,0.93 -1.47,2.22 -1.47,3.54 0,1.32 0.54,2.6 1.47,3.53 0.93,0.93 2.22,1.47 3.53,1.47 z"
   id="path1059" />

	<path
   inkscape:connector-curvature="0"
   d="m 23.511,113.656 c 1.32,0 2.61,-0.54 3.53,-1.47 0.94,-0.93 1.47,-2.21 1.47,-3.53 0,-1.32 -0.53,-2.61 -1.47,-3.54 -0.92,-0.93 -2.21,-1.46 -3.53,-1.46 -1.32,0 -2.61,0.53 -3.54,1.46 -0.93,0.93 -1.46,2.22 -1.46,3.54 0,1.31 0.53,2.6 1.46,3.53 0.93,0.93 2.22,1.47 3.54,1.47 z"
   id="path1061" />

</g>
        <g
           id="g1065">
</g>
        <g
           id="g1067">
</g>
        <g
           id="g1069">
</g>
        <g
           id="g1071">
</g>
        <g
           id="g1073">
</g>
        <g
           id="g1075">
</g>
        <g
           id="g1077">
</g>
        <g
           id="g1079">
</g>
        <g
           id="g1081">
</g>
        <g
           id="g1083">
</g>
        <g
           id="g1085">
</g>
        <g
           id="g1087">
</g>
        <g
           id="g1089">
</g>
        <g
           id="g1091">
</g>
        <g
           id="g1093">
</g>
      </g>
    </g>
  </g>
</svg>
