<?xml version="1.0" encoding="iso-8859-1"?>
<!-- Generator: Adobe Illustrator 18.0.0, SVG Export Plug-In . SVG Version: 6.00 Build 0)  -->
<!DOCTYPE svg PUBLIC "-//W3C//DTD SVG 1.1//EN" "http://www.w3.org/Graphics/SVG/1.1/DTD/svg11.dtd">
<svg version="1.1" id="Capa_1" xmlns="http://www.w3.org/2000/svg" xmlns:xlink="http://www.w3.org/1999/xlink" x="0px" y="0px"
	 viewBox="0 0 410.995 410.995" style="enable-background:new 0 0 410.995 410.995;" xml:space="preserve">
<g>
	<path d="M390.375,85.14H377.99V79.2c0-5.388-4.384-9.771-9.772-9.771h-38.771c-5.388,0-9.772,4.383-9.772,9.771v5.94h-45.192
		V61.732c0-20.531-16.704-37.235-37.235-37.235h-63.506c-20.531,0-37.234,16.704-37.234,37.235V85.14H91.32V79.2
		c0-5.388-4.384-9.771-9.772-9.771H42.777c-5.388,0-9.771,4.383-9.771,9.771v5.94H20.62C9.25,85.14,0,94.39,0,105.76v247.363
		c0,11.37,9.25,20.62,20.62,20.62h7.554v7.754c0,2.761,2.239,5,5,5h38.652c2.761,0,5-2.239,5-5v-7.754h257.343v7.754
		c0,2.761,2.239,5,5,5h38.652c2.761,0,5-2.239,5-5v-7.754h7.554c11.37,0,20.62-9.25,20.62-20.62V105.76
		C410.995,94.39,401.745,85.14,390.375,85.14z M400.995,105.76v23.469c-17.741-2.258-31.83-16.348-34.087-34.089h23.468
		C396.23,95.14,400.995,99.904,400.995,105.76z M54.169,363.743C51.82,340.477,33.267,321.924,10,319.576V139.306
		c23.266-2.347,41.82-20.9,44.169-44.166h118.413v31.898c0,2.761,2.239,5,5,5h55.831c2.761,0,5-2.239,5-5V95.14h118.419
		c2.348,23.264,20.899,41.816,44.163,44.166v180.271c-23.264,2.349-41.815,20.901-44.163,44.166H54.169z M182.582,95.14h45.831
		v26.898h-45.831V95.14z M329.674,79.428h38.315v5.711h-38.315V79.428z M146.507,61.732c0-15.018,12.217-27.235,27.234-27.235
		h63.506c15.018,0,27.235,12.217,27.235,27.235v23.404h-9.622V63.454c0-10.661-8.674-19.335-19.335-19.335h-60.063
		c-10.661,0-19.334,8.674-19.334,19.335v21.682h-9.622V61.732z M166.128,63.454c0-5.147,4.188-9.335,9.334-9.335h60.063
		c5.147,0,9.335,4.188,9.335,9.335V85.14h-78.732V63.454z M43.005,79.428H81.32v5.711H43.005V79.428z M20.62,95.14h23.473
		C41.835,112.884,27.744,126.974,10,129.23v-23.47C10,99.904,14.764,95.14,20.62,95.14z M10,353.123v-23.471
		c17.744,2.256,31.835,16.347,34.093,34.091H20.62C14.764,363.743,10,358.979,10,353.123z M66.826,376.497H38.174v-2.754h28.652
		V376.497z M372.821,376.497h-28.652v-2.754h28.652V376.497z M390.375,363.743h-23.468c2.257-17.742,16.346-31.832,34.087-34.09
		v23.47C400.995,358.979,396.23,363.743,390.375,363.743z"/>
	<path d="M176.114,348.582H61.231c-2.761,0-5,2.239-5,5s2.239,5,5,5h114.883c2.761,0,5-2.239,5-5S178.875,348.582,176.114,348.582z"
		/>
	<path d="M356.68,105.565c0-2.761-2.239-5-5-5h-92.335c-2.761,0-5,2.239-5,5s2.239,5,5,5h92.335
		C354.441,110.565,356.68,108.326,356.68,105.565z"/>
	<path d="M358.637,114.522h-55.831c-2.761,0-5,2.239-5,5s2.239,5,5,5h55.831c2.761,0,5-2.239,5-5S361.398,114.522,358.637,114.522z"
		/>
	<path d="M56.568,148.511c0-2.761-2.239-5-5-5H18.284c-2.761,0-5,2.239-5,5s2.239,5,5,5h33.284
		C54.329,153.511,56.568,151.273,56.568,148.511z"/>
	<path d="M29.021,157.469H18.284c-2.761,0-5,2.239-5,5s2.239,5,5,5h10.737c2.761,0,5-2.239,5-5S31.782,157.469,29.021,157.469z"/>
	<path d="M117.767,337.477c0-2.761-2.239-5-5-5H52.642c-2.761,0-5,2.239-5,5s2.239,5,5,5h60.125
		C115.528,342.477,117.767,340.238,117.767,337.477z"/>
	<path d="M387.481,345.226c-1.31,0-2.6,0.54-3.53,1.47c-0.93,0.93-1.47,2.22-1.47,3.53c0,1.32,0.54,2.61,1.47,3.54
		c0.93,0.93,2.22,1.46,3.53,1.46c1.32,0,2.61-0.53,3.54-1.46c0.93-0.93,1.46-2.22,1.46-3.54c0-1.31-0.53-2.6-1.46-3.53
		C390.091,345.766,388.801,345.226,387.481,345.226z"/>
	<path d="M23.511,345.226c-1.32,0-2.61,0.54-3.54,1.47c-0.93,0.93-1.46,2.22-1.46,3.53c0,1.32,0.53,2.61,1.46,3.54
		c0.93,0.93,2.22,1.46,3.54,1.46s2.6-0.53,3.53-1.46c0.94-0.93,1.47-2.22,1.47-3.54c0-1.31-0.53-2.6-1.47-3.53
		C26.111,345.766,24.831,345.226,23.511,345.226z"/>
	<path d="M387.481,113.656c1.32,0,2.61-0.54,3.54-1.47c0.93-0.93,1.46-2.22,1.46-3.53c0-1.32-0.53-2.61-1.46-3.54
		c-0.93-0.93-2.22-1.46-3.54-1.46c-1.31,0-2.6,0.53-3.53,1.46c-0.93,0.93-1.47,2.22-1.47,3.54c0,1.32,0.54,2.6,1.47,3.53
		C384.881,113.116,386.171,113.656,387.481,113.656z"/>
	<path d="M23.511,113.656c1.32,0,2.61-0.54,3.53-1.47c0.94-0.93,1.47-2.21,1.47-3.53c0-1.32-0.53-2.61-1.47-3.54
		c-0.92-0.93-2.21-1.46-3.53-1.46s-2.61,0.53-3.54,1.46c-0.93,0.93-1.46,2.22-1.46,3.54c0,1.31,0.53,2.6,1.46,3.53
		C20.901,113.116,22.191,113.656,23.511,113.656z"/>
</g>
<g>
</g>
<g>
</g>
<g>
</g>
<g>
</g>
<g>
</g>
<g>
</g>
<g>
</g>
<g>
</g>
<g>
</g>
<g>
</g>
<g>
</g>
<g>
</g>
<g>
</g>
<g>
</g>
<g>
</g>
</svg>
